<svg width="317" height="217" viewBox="0 0 317 217" fill="none" xmlns="http://www.w3.org/2000/svg">
<path d="M73 34H107V200C107 209.389 99.3888 217 90 217V217C80.6112 217 73 209.389 73 200V34Z" fill="#858AE3"/>
<rect y="34" width="34" height="183" rx="17" transform="rotate(-90 0 34)" fill="#858AE3"/>
<path d="M208 34H242V200C242 209.389 234.389 217 225 217V217C215.611 217 208 209.389 208 200V34Z" fill="#2C0735"/>
<rect x="134" y="34" width="34" height="183" rx="17" transform="rotate(-90 134 34)" fill="#2C0735"/>
<path d="M127 156H146.5C149.538 156 152 158.462 152 161.5V161.5C152 164.538 149.538 167 146.5 167H127V156Z" fill="#2C0735"/>
<path d="M127 201H146.5C149.538 201 152 203.462 152 206.5V206.5C152 209.538 149.538 212 146.5 212H127V201Z" fill="#2C0735"/>
<path d="M127 177H146.5C149.538 177 152 179.462 152 182.5V182.5C152 185.538 149.538 188 146.5 188H127V177Z" fill="#2C0735"/>
<path d="M117 166C117 160.477 121.477 156 127 156V156V212V212C121.477 212 117 207.523 117 202V166Z" fill="#2C0735"/>
<path d="M187 156H167.5C164.462 156 162 158.462 162 161.5V161.5C162 164.538 164.462 167 167.5 167H187V156Z" fill="#858AE3"/>
<path d="M187 201H167.5C164.462 201 162 203.462 162 206.5V206.5C162 209.538 164.462 212 167.5 212H187V201Z" fill="#858AE3"/>
<path d="M187 177H167.5C164.462 177 162 179.462 162 182.5V182.5C162 185.538 164.462 188 167.5 188H187V177Z" fill="#858AE3"/>
<path d="M197 166C197 160.477 192.523 156 187 156V156V212V212C192.523 212 197 207.523 197 202V166Z" fill="#858AE3"/>
</svg>
